<svg xmlns="http://www.w3.org/2000/svg" width="262" height="19" fill="none"><path fill="#fff" d="M1.28 18a.585.585 0 0 1-.432-.168.585.585 0 0 1-.168-.432V1.8c0-.176.056-.32.168-.432A.585.585 0 0 1 1.28 1.2h2.544c.272 0 .464.064.576.192.128.112.208.2.24.264l5.856 9.24V1.8c0-.176.056-.32.168-.432a.585.585 0 0 1 .432-.168h2.88c.176 0 .32.056.432.168a.585.585 0 0 1 .168.432v15.6c0 .16-.056.304-.168.432a.585.585 0 0 1-.432.168h-2.568c-.256 0-.448-.064-.576-.192a3.236 3.236 0 0 1-.216-.264L4.76 8.664V17.4c0 .176-.056.32-.168.432A.585.585 0 0 1 4.16 18H1.28Zm15.69 0a.544.544 0 0 1-.36-.144.544.544 0 0 1-.144-.36c0-.08.008-.152.024-.216l5.64-15.408a.928.928 0 0 1 .288-.456c.16-.144.376-.216.648-.216h3.552c.272 0 .48.072.624.216.16.128.264.28.312.456L33.17 17.28a.476.476 0 0 1 .048.216.505.505 0 0 1-.168.36.488.488 0 0 1-.36.144h-2.952c-.24 0-.424-.056-.552-.168a1.055 1.055 0 0 1-.216-.336l-.936-2.448h-6.408l-.912 2.448a1.055 1.055 0 0 1-.216.336c-.112.112-.304.168-.576.168H16.97Zm5.64-6.408h4.464l-2.256-6.336-2.208 6.336ZM35.71 18a.639.639 0 0 1-.432-.168.585.585 0 0 1-.168-.432V1.8c0-.176.056-.32.168-.432a.639.639 0 0 1 .432-.168h2.592c.256 0 .448.072.576.216.144.128.232.232.264.312l4.224 7.584 4.224-7.584c.048-.08.128-.184.24-.312.128-.144.328-.216.6-.216h2.568c.176 0 .32.056.432.168a.548.548 0 0 1 .192.432v15.6c0 .176-.064.32-.192.432a.585.585 0 0 1-.432.168h-2.856a.67.67 0 0 1-.456-.168.585.585 0 0 1-.168-.432v-9l-2.712 5.016c-.064.144-.16.272-.288.384-.128.112-.304.168-.528.168h-1.248c-.224 0-.4-.056-.528-.168a1.431 1.431 0 0 1-.312-.384L39.19 8.4v9c0 .176-.056.32-.168.432a.585.585 0 0 1-.432.168h-2.88ZM54 18a.544.544 0 0 1-.36-.144.544.544 0 0 1-.144-.36c0-.08.008-.152.024-.216l5.64-15.408a.928.928 0 0 1 .288-.456c.16-.144.376-.216.648-.216h3.552c.272 0 .48.072.624.216.16.128.264.28.312.456l5.616 15.408a.476.476 0 0 1 .048.216.505.505 0 0 1-.168.36.488.488 0 0 1-.36.144H66.77c-.24 0-.424-.056-.552-.168a1.055 1.055 0 0 1-.216-.336l-.936-2.448h-6.408l-.912 2.448a1.055 1.055 0 0 1-.216.336c-.112.112-.304.168-.576.168h-2.952Zm5.64-6.408h4.464L61.85 5.256l-2.208 6.336ZM72.741 18a.585.585 0 0 1-.432-.168.585.585 0 0 1-.168-.432V1.8c0-.176.056-.32.168-.432a.585.585 0 0 1 .432-.168h2.544c.272 0 .464.064.576.192.128.112.208.2.24.264l5.856 9.24V1.8c0-.176.056-.32.168-.432a.585.585 0 0 1 .432-.168h2.88c.176 0 .32.056.432.168a.585.585 0 0 1 .168.432v15.6c0 .16-.056.304-.168.432a.585.585 0 0 1-.432.168h-2.568c-.256 0-.448-.064-.576-.192a3.236 3.236 0 0 1-.216-.264l-5.856-8.88V17.4c0 .176-.056.32-.168.432a.585.585 0 0 1-.432.168h-2.88Zm23.586.24c-1.52 0-2.832-.248-3.936-.744-1.088-.512-1.936-1.248-2.544-2.208-.592-.976-.92-2.16-.984-3.552a98.442 98.442 0 0 1 0-4.416c.064-1.36.4-2.512 1.008-3.456s1.464-1.664 2.568-2.16c1.104-.496 2.4-.744 3.888-.744 1.2 0 2.264.152 3.192.456.928.288 1.704.68 2.328 1.176.64.496 1.12 1.04 1.44 1.632.336.592.512 1.176.528 1.752a.392.392 0 0 1-.144.36.488.488 0 0 1-.36.144h-3.504a.932.932 0 0 1-.408-.072.911.911 0 0 1-.216-.264 3.217 3.217 0 0 0-.504-.744c-.208-.272-.504-.504-.888-.696-.368-.192-.856-.288-1.464-.288-.912 0-1.632.24-2.16.72-.512.48-.792 1.248-.84 2.304a60.568 60.568 0 0 0 0 4.176c.048 1.12.344 1.928.888 2.424s1.264.744 2.16.744c.608 0 1.144-.104 1.608-.312.48-.208.856-.528 1.128-.96.272-.448.408-1.016.408-1.704v-.456h-2.256a.67.67 0 0 1-.456-.168.67.67 0 0 1-.168-.456V8.952c0-.176.056-.32.168-.432a.623.623 0 0 1 .456-.192h6.048c.176 0 .32.064.432.192a.585.585 0 0 1 .168.432v2.736c0 1.376-.312 2.552-.936 3.528-.624.976-1.512 1.728-2.664 2.256-1.136.512-2.464.768-3.984.768Zm9.002-.24a.544.544 0 0 1-.36-.144.544.544 0 0 1-.144-.36c0-.08.008-.152.024-.216l5.64-15.408a.928.928 0 0 1 .288-.456c.16-.144.376-.216.648-.216h3.552c.272 0 .48.072.624.216.16.128.264.28.312.456l5.616 15.408a.476.476 0 0 1 .048.216.505.505 0 0 1-.168.36.488.488 0 0 1-.36.144h-2.952c-.24 0-.424-.056-.552-.168a1.055 1.055 0 0 1-.216-.336l-.936-2.448h-6.408l-.912 2.448a1.055 1.055 0 0 1-.216.336c-.112.112-.304.168-.576.168h-2.952Zm5.64-6.408h4.464l-2.256-6.336-2.208 6.336Zm13.1 6.408a.585.585 0 0 1-.432-.168.585.585 0 0 1-.168-.432V1.8c0-.176.056-.32.168-.432a.585.585 0 0 1 .432-.168h2.544c.272 0 .464.064.576.192.128.112.208.2.24.264l5.856 9.24V1.8c0-.176.056-.32.168-.432a.585.585 0 0 1 .432-.168h2.88c.176 0 .32.056.432.168a.585.585 0 0 1 .168.432v15.6c0 .16-.056.304-.168.432a.585.585 0 0 1-.432.168h-2.568c-.256 0-.448-.064-.576-.192a3.236 3.236 0 0 1-.216-.264l-5.856-8.88V17.4c0 .176-.056.32-.168.432a.585.585 0 0 1-.432.168h-2.88Zm17.25 0a.585.585 0 0 1-.432-.168.585.585 0 0 1-.168-.432V1.8c0-.176.056-.32.168-.432a.585.585 0 0 1 .432-.168h3.168c.16 0 .296.056.408.168a.548.548 0 0 1 .192.432v12.576h7.248c.176 0 .32.064.432.192a.548.548 0 0 1 .192.432v2.4c0 .176-.064.32-.192.432a.585.585 0 0 1-.432.168h-11.016Zm14.32 0a.585.585 0 0 1-.432-.168.585.585 0 0 1-.168-.432V1.8c0-.176.056-.32.168-.432a.585.585 0 0 1 .432-.168h3.216c.176 0 .32.056.432.168a.585.585 0 0 1 .168.432v15.6c0 .176-.056.32-.168.432a.585.585 0 0 1-.432.168h-3.216Zm7.782 0a.585.585 0 0 1-.432-.168.585.585 0 0 1-.168-.432V1.8c0-.176.056-.32.168-.432a.585.585 0 0 1 .432-.168h3.024c.176 0 .32.056.432.168a.585.585 0 0 1 .168.432v5.328l4.44-5.472c.064-.096.168-.192.312-.288.16-.112.368-.168.624-.168h3.456c.144 0 .264.056.36.168a.46.46 0 0 1 .144.336.447.447 0 0 1-.096.288l-5.736 7.248 6.192 7.968c.064.064.096.16.096.288a.505.505 0 0 1-.168.36.46.46 0 0 1-.336.144h-3.576c-.288 0-.512-.064-.672-.192a2.342 2.342 0 0 1-.288-.288l-4.752-5.928V17.4c0 .176-.056.32-.168.432a.585.585 0 0 1-.432.168h-3.024Zm15.89 0a.585.585 0 0 1-.432-.168.585.585 0 0 1-.168-.432V1.8c0-.176.056-.32.168-.432a.585.585 0 0 1 .432-.168h3.168c.16 0 .296.056.408.168a.548.548 0 0 1 .192.432v12.576h7.248c.176 0 .32.064.432.192a.548.548 0 0 1 .192.432v2.4c0 .176-.064.32-.192.432a.585.585 0 0 1-.432.168h-11.016Zm12.761 0a.544.544 0 0 1-.36-.144.544.544 0 0 1-.144-.36c0-.08.008-.152.024-.216l5.64-15.408a.928.928 0 0 1 .288-.456c.16-.144.376-.216.648-.216h3.552c.272 0 .48.072.624.216.16.128.264.28.312.456l5.616 15.408a.476.476 0 0 1 .048.216.505.505 0 0 1-.168.36.488.488 0 0 1-.36.144h-2.952c-.24 0-.424-.056-.552-.168a1.055 1.055 0 0 1-.216-.336l-.936-2.448h-6.408l-.912 2.448a1.055 1.055 0 0 1-.216.336c-.112.112-.304.168-.576.168h-2.952Zm5.64-6.408h4.464l-2.256-6.336-2.208 6.336ZM210.811 18a.585.585 0 0 1-.432-.168.585.585 0 0 1-.168-.432V1.8c0-.176.056-.32.168-.432a.585.585 0 0 1 .432-.168h6.528c2.064 0 3.688.48 4.872 1.44 1.2.944 1.8 2.288 1.8 4.032 0 1.136-.28 2.096-.84 2.88a5.108 5.108 0 0 1-2.16 1.776l3.312 5.904a.597.597 0 0 1 .072.264.505.505 0 0 1-.168.36.488.488 0 0 1-.36.144h-3.168c-.304 0-.528-.072-.672-.216a2.04 2.04 0 0 1-.312-.432l-2.736-5.28h-2.472V17.4c0 .176-.056.32-.168.432a.585.585 0 0 1-.432.168h-3.096Zm3.696-9.312h2.784c.752 0 1.312-.184 1.68-.552.384-.368.576-.872.576-1.512 0-.624-.184-1.128-.552-1.512-.352-.384-.92-.576-1.704-.576h-2.784v4.152ZM231.842 18a.67.67 0 0 1-.456-.168.585.585 0 0 1-.168-.432v-1.704c0-.112.032-.28.096-.504.064-.24.232-.464.504-.672l2.496-2.448c1.28-.976 2.328-1.8 3.144-2.472.832-.688 1.448-1.296 1.848-1.824.4-.528.6-1.024.6-1.488 0-.544-.144-.992-.432-1.344-.272-.368-.752-.552-1.44-.552-.464 0-.856.104-1.176.312a1.895 1.895 0 0 0-.696.768 3.77 3.77 0 0 0-.336.984c-.064.208-.176.352-.336.432a.972.972 0 0 1-.48.12h-3a.488.488 0 0 1-.504-.504 5.46 5.46 0 0 1 .48-2.16 5.72 5.72 0 0 1 1.32-1.776 6.088 6.088 0 0 1 2.04-1.224c.8-.288 1.696-.432 2.688-.432 1.36 0 2.512.216 3.456.648.96.432 1.688 1.04 2.184 1.824.496.768.744 1.672.744 2.712a4.78 4.78 0 0 1-.528 2.208c-.336.672-.824 1.32-1.464 1.944a24.016 24.016 0 0 1-2.232 1.896l-2.208 2.232h6.168c.176 0 .32.056.432.168a.548.548 0 0 1 .192.432V17.4c0 .176-.064.32-.192.432a.585.585 0 0 1-.432.168h-12.312Zm23.244 0a.639.639 0 0 1-.432-.168.585.585 0 0 1-.168-.432v-2.712h-7.464a.639.639 0 0 1-.432-.168.585.585 0 0 1-.168-.432v-2.28c0-.144.024-.272.072-.384.064-.128.128-.248.192-.36l6.984-9.456c.208-.272.504-.408.888-.408h3.48c.176 0 .32.056.432.168a.548.548 0 0 1 .192.432v9.312h2.112c.192 0 .344.064.456.192a.555.555 0 0 1 .168.408v2.376c0 .176-.064.32-.192.432a.555.555 0 0 1-.408.168h-2.136V17.4c0 .176-.064.32-.192.432a.585.585 0 0 1-.432.168h-2.952Zm-4.536-6.72h4.032V5.616l-4.032 5.664Z"/></svg>